<svg width="512" height="512" viewBox="0 0 512 512" fill="none" xmlns="http://www.w3.org/2000/svg">
<path d="M439.187 172.58C414.513 172.58 394.488 180.172 380.347 195.926C382.34 190.516 383.479 183.873 383.574 175.996H297.212C278.421 175.996 267.602 184.253 260.199 205.606L263.995 175.996H176.874C160.93 175.996 149.921 183.683 145.935 198.583C135.211 181.216 115.946 172.58 91.6506 172.58C45.4326 172.58 15.3481 199.248 10.0335 256.19L9.36921 263.402C4.62403 314.271 31.3868 339.42 72.8597 339.42C119.078 339.42 149.067 312.468 154.477 255.525L155.141 248.313C156.375 235.216 155.521 223.923 152.768 214.242H191.869L180.67 310.19C178.392 329.265 188.737 337.997 206.009 337.997C216.544 337.997 220.15 337.332 224.136 336.668L237.992 214.242H283.546L272.347 310.19C270.069 329.265 280.414 337.997 297.686 337.997C308.221 337.997 311.827 337.332 315.813 336.668L329.669 214.242H352.066C359.848 214.242 366.112 212.439 370.952 208.833C363.929 221.265 359.279 237.019 357.476 256.095L356.811 263.308C352.066 314.176 378.734 339.325 420.302 339.325C466.52 339.325 496.509 312.373 501.919 255.431L502.583 248.218C507.328 197.729 480.66 172.58 439.187 172.58ZM108.923 245.276L108.449 250.685C105.317 289.216 92.7895 301.174 77.3202 301.174C63.3693 291.779 53.5943 291.779 55.5872 266.629L56.0618 261.03C59.0987 222.594 71.7209 210.446 87.1901 210.446C100.856 210.446 110.916 220.126 108.923 245.276ZM456.555 245.276L456.08 250.685C452.948 289.216 440.421 301.174 424.952 301.174C411.096 301.174 401.226 291.779 403.219 266.629L403.694 261.03C406.825 222.689 419.353 210.541 434.822 210.541C448.393 210.446 458.453 220.126 456.555 245.276Z" fill="#EB001F"/>
</svg>
